<?xml version="1.0" encoding="UTF-8" standalone="no"?>
<svg
   width="16"
   height="16"
   viewBox="0 0 16 16"
   fill="none"
   version="1.1"
   id="svg12"
   sodipodi:docname="ssh-symbolic.svg"
   inkscape:version="1.1.1 (3bf5ae0d25, 2021-09-20)"
   xmlns:inkscape="http://www.inkscape.org/namespaces/inkscape"
   xmlns:sodipodi="http://sodipodi.sourceforge.net/DTD/sodipodi-0.dtd"
   xmlns="http://www.w3.org/2000/svg"
   xmlns:svg="http://www.w3.org/2000/svg"
   xmlns:rdf="http://www.w3.org/1999/02/22-rdf-syntax-ns#"
   xmlns:cc="http://creativecommons.org/ns#"
   xmlns:dc="http://purl.org/dc/elements/1.1/">
  <sodipodi:namedview
     id="namedview11"
     pagecolor="#ffffff"
     bordercolor="#666666"
     borderopacity="1.0"
     inkscape:pageshadow="2"
     inkscape:pageopacity="0.0"
     inkscape:pagecheckerboard="0"
     showgrid="false"
     inkscape:zoom="31.245281"
     inkscape:cx="21.1872"
     inkscape:cy="5.9849038"
     inkscape:window-width="2560"
     inkscape:window-height="937"
     inkscape:window-x="0"
     inkscape:window-y="0"
     inkscape:window-maximized="1"
     inkscape:current-layer="svg12"
     showguides="false" />
  <metadata
     id="metadata18">
    <rdf:RDF>
      <cc:Work
         rdf:about="">
        <dc:format>image/svg+xml</dc:format>
        <dc:type
           rdf:resource="http://purl.org/dc/dcmitype/StillImage" />
      </cc:Work>
    </rdf:RDF>
  </metadata>
  <defs
     id="defs16" />
  <g
     id="layer1" />
  <style
     type="text/css"
     id="style24591">
	.st0{fill:#555555;}
</style>
  <g
     id="g24595"
     transform="matrix(0.0306893,0,0,0.03522384,0.1435392,-1.0173028)"
     style="display:inline">
	<path
   class="st0"
   d="m 244.9,149.4 c -17.2,0 -31.8,-12.3 -34.5,-29.1 l -6,-37.9 c -0.9,-5.6 -5.8,-9.7 -11.5,-9.7 H 46.5 c -6.4,0 -11.6,5.1 -11.6,11.5 v 343.6 c 0,6.3 5.2,11.4 11.6,11.4 h 418.9 c 6.4,0 11.6,-5.1 11.6,-11.4 V 160.9 c 0,-6.3 -5.2,-11.4 -11.6,-11.4 H 244.9 Z m 0,-34.3 h 220.6 c 25.7,0 46.5,20.5 46.5,45.8 v 266.9 c 0,25.3 -20.8,45.8 -46.5,45.8 H 46.5 C 20.8,473.6 0,453.1 0,427.8 V 84.2 C 0,58.9 20.8,38.4 46.5,38.4 h 146.3 c 22.9,0 42.4,16.4 46,38.8 z"
   id="path24593" />

</g>
  <path
     d="m 4.2482121,11.406983 q 0,-0.333984 -0.166992,-0.544921 -0.162598,-0.215333 -0.760254,-0.457032 -0.720703,-0.28125 -1.265625,-0.7294919 -0.540528,-0.4526368 -0.540528,-1.2832032 0,-0.8085937 0.566895,-1.2963867 0.566894,-0.4921875 1.458984,-0.4921875 0.918457,0 1.463379,0.553711 0.549317,0.5537109 0.549317,1.4194336 h -1.291993 q 0,-0.3999024 -0.175781,-0.6591797 -0.171387,-0.2592774 -0.566894,-0.2592774 -0.364746,0 -0.540528,0.2153321 -0.171386,0.215332 -0.171386,0.5229492 0,0.3120117 0.259277,0.5229492 0.263672,0.2109375 0.694336,0.3999023 0.896484,0.3208008 1.340332,0.804199 0.443848,0.483399 0.443848,1.274414 0,0.84375 -0.531739,1.313965 -0.531738,0.46582 -1.4458,0.46582 -0.549317,0 -1.059083,-0.224121 -0.505371,-0.224121 -0.830566,-0.689941 -0.325195,-0.46582 -0.325195,-1.195313 h 1.296386 q 0,0.580079 0.228516,0.817383 0.23291,0.237305 0.689942,0.237305 0.373535,0 0.527343,-0.202148 0.153809,-0.206543 0.153809,-0.514161 z"
     id="path134660"
     style="font-weight:bold;font-stretch:condensed;font-size:9px;line-height:1.25;font-family:'Roboto Condensed';-inkscape-font-specification:'Roboto Condensed,  Bold Condensed';fill:#555555" />
  <path
     d="m 8.5581055,11.406983 q 0,-0.333984 -0.1669922,-0.544921 Q 8.2285156,10.646729 7.6308594,10.40503 6.9101562,10.12378 6.3652344,9.6755381 5.824707,9.2229013 5.824707,8.3923349 q 0,-0.8085937 0.5668946,-1.2963867 0.5668945,-0.4921875 1.4589843,-0.4921875 0.9184571,0 1.4633789,0.553711 0.5493165,0.5537109 0.5493165,1.4194336 H 8.5712891 q 0,-0.3999024 -0.1757813,-0.6591797 -0.1713867,-0.2592774 -0.5668945,-0.2592774 -0.3647461,0 -0.5405274,0.2153321 -0.1713867,0.215332 -0.1713867,0.5229492 0,0.3120117 0.2592774,0.5229492 0.2636718,0.2109375 0.6943359,0.3999023 0.8964844,0.3208008 1.340332,0.804199 0.4438477,0.483399 0.4438477,1.274414 0,0.84375 -0.5317383,1.313965 -0.5317383,0.46582 -1.4458008,0.46582 -0.5493164,0 -1.059082,-0.224121 Q 6.3125,12.729737 5.9873047,12.263917 5.6621094,11.798097 5.6621094,11.068604 h 1.2963867 q 0,0.580079 0.2285156,0.817383 0.2329102,0.237305 0.6899414,0.237305 0.3735352,0 0.5273438,-0.202148 0.1538086,-0.206543 0.1538086,-0.514161 z"
     id="path134662"
     style="font-weight:bold;font-stretch:condensed;font-size:9px;line-height:1.25;font-family:'Roboto Condensed';-inkscape-font-specification:'Roboto Condensed,  Bold Condensed';fill:#555555" />
  <path
     d="m 13.309179,13.090089 v -2.737793 h -1.902832 v 2.737793 H 10.10996 V 6.6916513 h 1.296387 v 2.588379 h 1.902832 v -2.588379 h 1.287597 v 6.3984377 z"
     id="path134664"
     style="font-weight:bold;font-stretch:condensed;font-size:9px;line-height:1.25;font-family:'Roboto Condensed';-inkscape-font-specification:'Roboto Condensed,  Bold Condensed';fill:#555555" />
</svg>
